<svg width="150" height="68" viewBox="0 0 150 68" fill="none" xmlns="http://www.w3.org/2000/svg">
<g clip-path="url(#clip0_1_15)">
<g clip-path="url(#clip1_1_15)">
<path d="M148.378 49.519C148.47 49.5199 148.562 49.5019 148.648 49.466C148.733 49.4302 148.811 49.3772 148.875 49.3105C148.939 49.2438 148.988 49.1647 149.02 49.0782C149.052 48.9917 149.066 48.8996 149.061 48.8076C149.061 48.303 148.754 48.0619 148.125 48.0619H147.109V50.7036H147.491V49.5521H147.961L147.972 49.5661L148.7 50.7036H149.109L148.325 49.5263L148.378 49.519ZM147.936 49.2544H147.492V48.3613H148.054C148.344 48.3613 148.675 48.4084 148.675 48.7857C148.675 49.2196 148.34 49.2544 147.933 49.2544" fill="#0A66C2"/>
<path d="M-0.5 20.6347H5.14082V41.0413H15.5837V46.2113H-0.5V20.6347Z" fill="#0A66C2"/>
<path d="M18.0775 28.8696H23.4965V46.2018H18.0775V28.8696ZM20.787 20.2529C21.4087 20.253 22.0165 20.4362 22.5333 20.7793C23.0502 21.1225 23.4531 21.6101 23.6909 22.1806C23.9287 22.7511 23.9909 23.3788 23.8696 23.9844C23.7482 24.59 23.4488 25.1463 23.0091 25.5828C22.5694 26.0194 22.0093 26.3167 21.3995 26.4371C20.7898 26.5576 20.1577 26.4957 19.5833 26.2594C19.0089 26.0231 18.518 25.6229 18.1726 25.1095C17.8272 24.5961 17.6429 23.9925 17.6429 23.375C17.6429 22.9649 17.7242 22.5589 17.8822 22.1801C18.0402 21.8013 18.2718 21.457 18.5638 21.1671C18.8558 20.8772 19.2024 20.6472 19.5839 20.4904C19.9653 20.3335 20.3742 20.2528 20.787 20.2529Z" fill="#0A66C2"/>
<path d="M46.1648 20.6307H51.5838V35.9161L57.7253 28.8618H64.3692L57.2568 36.8859L64.2196 46.2091H57.4086L51.656 37.6417H51.5849V46.208H46.1659L46.1648 20.6307Z" fill="#0A66C2"/>
<path d="M26.5012 28.8713H31.7051V31.2399H31.7791C32.2989 30.3555 33.0508 29.6279 33.9545 29.1348C34.8582 28.6417 35.8798 28.4016 36.9102 28.4402C42.4054 28.4402 43.4169 32.031 43.4169 36.6959V46.2007H37.9979V37.774C37.9979 35.7625 37.9607 33.1769 35.1755 33.1769C32.3588 33.1769 31.9242 35.3672 31.9242 37.6276V46.1984H26.5052L26.5012 28.8713Z" fill="#0A66C2"/>
<path d="M75.7812 35.5197C75.7916 35.0831 75.7126 34.6489 75.5491 34.2435C75.3855 33.838 75.1408 33.4698 74.8297 33.1611C74.5186 32.8524 74.1477 32.6095 73.7394 32.4474C73.331 32.2852 72.8938 32.2071 72.4542 32.2177C71.5074 32.1591 70.5753 32.4725 69.859 33.0902C69.1426 33.7079 68.6994 34.5804 68.6248 35.5197H75.7812ZM80.3716 43.2002C79.4711 44.2847 78.339 45.1568 77.0573 45.7532C75.7757 46.3496 74.3765 46.6555 72.9611 46.6486C67.5421 46.6486 63.2036 43.0561 63.2036 37.4931C63.2036 31.9301 67.5416 28.3393 72.9611 28.3393C78.0262 28.3393 81.2025 31.9273 81.2025 37.4931V39.1806H68.6248C68.7814 40.1376 69.281 41.0062 70.0314 41.6262C70.7819 42.2463 71.7328 42.5762 72.7088 42.555C73.4801 42.5502 74.238 42.3539 74.9134 41.984C75.5888 41.6141 76.1604 41.0823 76.576 40.4369L80.3716 43.2002Z" fill="#0A66C2"/>
<path d="M92.4977 33.0591C89.7882 33.0591 88.1625 34.8559 88.1625 37.474C88.1625 40.0921 89.7876 41.8906 92.4977 41.8906C95.2077 41.8906 96.8368 40.0966 96.8368 37.474C96.8368 34.8515 95.2106 33.0591 92.4977 33.0591ZM101.826 46.1984H96.8368V43.8999H96.7629C96.137 44.7359 95.3252 45.4172 94.3908 45.8906C93.4563 46.3639 92.4244 46.6166 91.3755 46.629C86.1688 46.629 82.739 42.8969 82.739 37.6192C82.739 32.7721 85.7742 28.3213 90.7636 28.3213C93.0063 28.3213 95.1011 28.9307 96.3299 30.6199H96.401V20.6291H101.825L101.826 46.1984Z" fill="#0A66C2"/>
<path d="M138.409 46.2085H132.99V37.7801C132.99 35.7703 132.954 33.1831 130.171 33.1831C127.349 33.1831 126.917 35.3728 126.917 37.6338V46.208H121.498V28.8758H126.7V31.2444H126.773C127.294 30.3603 128.046 29.6331 128.95 29.14C129.854 28.647 130.876 28.4067 131.906 28.4447C137.398 28.4447 138.411 32.0327 138.411 36.7004L138.409 46.2085ZM115.384 26.5066C114.762 26.5067 114.154 26.3237 113.637 25.9806C113.119 25.6375 112.716 25.1498 112.478 24.5791C112.24 24.0085 112.178 23.3805 112.299 22.7746C112.42 22.1688 112.72 21.6122 113.159 21.1753C113.599 20.7385 114.159 20.4409 114.769 20.3203C115.379 20.1997 116.012 20.2614 116.586 20.4977C117.161 20.734 117.652 21.1342 117.998 21.6478C118.343 22.1613 118.528 22.7651 118.528 23.3828C118.528 23.793 118.447 24.1991 118.289 24.5781C118.131 24.957 117.899 25.3014 117.607 25.5914C117.315 25.8815 116.969 26.1116 116.587 26.2687C116.206 26.4257 115.797 26.5065 115.384 26.5066ZM118.093 46.2085H112.669V28.8758H118.093V46.2085ZM141.11 15.2622H109.946C109.238 15.2543 108.557 15.5256 108.051 16.0165C107.545 16.5075 107.256 17.1778 107.247 17.8803V48.9606C107.255 49.6635 107.544 50.3343 108.05 50.8257C108.556 51.3172 109.238 51.589 109.946 51.5815H141.11C141.82 51.5903 142.503 51.3193 143.011 50.8279C143.519 50.3365 143.81 49.6649 143.82 48.9606V17.8781C143.81 17.1742 143.519 16.5031 143.011 16.0122C142.503 15.5212 141.819 15.2507 141.11 15.26" fill="#0A66C2"/>
<path d="M147.982 46.8852C147.323 46.8915 146.693 47.1568 146.23 47.6232C145.767 48.0896 145.509 48.719 145.512 49.3738C145.515 50.0286 145.779 50.6556 146.247 51.1175C146.714 51.5794 147.347 51.8387 148.006 51.8387C148.665 51.8387 149.298 51.5794 149.765 51.1175C150.232 50.6556 150.497 50.0286 150.5 49.3738C150.503 48.719 150.245 48.0896 149.782 47.6232C149.319 47.1568 148.689 46.8915 148.03 46.8852H147.982ZM147.982 51.5552C147.549 51.5623 147.125 51.4419 146.761 51.2093C146.397 50.9766 146.112 50.6421 145.939 50.248C145.767 49.854 145.717 49.4181 145.794 48.9954C145.871 48.5728 146.073 48.1824 146.374 47.8737C146.674 47.5649 147.061 47.3517 147.483 47.2609C147.906 47.17 148.346 47.2058 148.749 47.3635C149.151 47.5213 149.497 47.794 149.743 48.1471C149.99 48.5002 150.125 48.918 150.132 49.3474C150.132 49.3598 150.132 49.3715 150.132 49.3839C150.144 49.9473 149.93 50.4924 149.538 50.8994C149.145 51.3064 148.606 51.5418 148.039 51.554H147.982" fill="#0A66C2"/>
</g>
</g>
<defs>
<clipPath id="clip0_1_15">
<rect width="150" height="67.1431" fill="white"/>
</clipPath>
<clipPath id="clip1_1_15">
<rect width="151" height="36.6231" fill="white" transform="translate(-0.5 15.26)"/>
</clipPath>
</defs>
</svg>
