<svg width="150" height="37" viewBox="0 0 150 37" fill="none" xmlns="http://www.w3.org/2000/svg">
<g clip-path="url(#clip0_1_4)">
<path d="M148.378 34.519C148.47 34.5199 148.562 34.5019 148.648 34.466C148.733 34.4302 148.811 34.3772 148.875 34.3105C148.939 34.2438 148.988 34.1647 149.02 34.0782C149.052 33.9917 149.066 33.8996 149.061 33.8076C149.061 33.303 148.754 33.0619 148.125 33.0619H147.109V35.7036H147.491V34.5521H147.961L147.972 34.5661L148.7 35.7036H149.109L148.325 34.5263L148.378 34.519ZM147.936 34.2544H147.492V33.3613H148.054C148.344 33.3613 148.675 33.4084 148.675 33.7857C148.675 34.2196 148.34 34.2544 147.933 34.2544" fill="#0A66C2"/>
<path d="M-0.5 5.63467H5.14082V26.0413H15.5837V31.2113H-0.5V5.63467Z" fill="#0A66C2"/>
<path d="M18.0775 13.8696H23.4965V31.2018H18.0775V13.8696ZM20.787 5.25288C21.4087 5.25299 22.0165 5.4362 22.5333 5.77933C23.0502 6.12245 23.4531 6.6101 23.6909 7.1806C23.9287 7.7511 23.9909 8.37883 23.8696 8.98442C23.7482 9.59001 23.4488 10.1463 23.0091 10.5828C22.5694 11.0194 22.0093 11.3167 21.3995 11.4371C20.7898 11.5576 20.1577 11.4957 19.5833 11.2594C19.0089 11.0231 18.518 10.6229 18.1726 10.1095C17.8272 9.59605 17.6429 8.99245 17.6429 8.37498C17.6429 7.96494 17.7242 7.55891 17.8822 7.18008C18.0402 6.80125 18.2718 6.45705 18.5638 6.16713C18.8558 5.87721 19.2024 5.64725 19.5839 5.49038C19.9653 5.33351 20.3742 5.25281 20.787 5.25288Z" fill="#0A66C2"/>
<path d="M46.1648 5.63074H51.5838V20.9161L57.7253 13.8618H64.3692L57.2568 21.8859L64.2196 31.2091H57.4086L51.656 22.6417H51.5849V31.208H46.1659L46.1648 5.63074Z" fill="#0A66C2"/>
<path d="M26.5012 13.8713H31.7051V16.2399H31.7791C32.2989 15.3555 33.0508 14.6279 33.9545 14.1348C34.8582 13.6417 35.8798 13.4016 36.9102 13.4402C42.4054 13.4402 43.4169 17.031 43.4169 21.6959V31.2007H37.9979V22.774C37.9979 20.7625 37.9607 18.1769 35.1755 18.1769C32.3588 18.1769 31.9242 20.3672 31.9242 22.6276V31.1984H26.5052L26.5012 13.8713Z" fill="#0A66C2"/>
<path d="M75.7812 20.5197C75.7916 20.0831 75.7126 19.6489 75.5491 19.2435C75.3855 18.838 75.1408 18.4698 74.8297 18.1611C74.5186 17.8524 74.1477 17.6095 73.7394 17.4474C73.331 17.2852 72.8938 17.2071 72.4542 17.2177C71.5074 17.1591 70.5753 17.4725 69.859 18.0902C69.1426 18.7079 68.6994 19.5804 68.6248 20.5197H75.7812ZM80.3716 28.2002C79.4711 29.2847 78.339 30.1568 77.0573 30.7532C75.7757 31.3496 74.3765 31.6555 72.9611 31.6486C67.5421 31.6486 63.2036 28.0561 63.2036 22.4931C63.2036 16.9301 67.5416 13.3393 72.9611 13.3393C78.0262 13.3393 81.2025 16.9273 81.2025 22.4931V24.1806H68.6248C68.7814 25.1376 69.281 26.0062 70.0314 26.6262C70.7819 27.2463 71.7328 27.5762 72.7088 27.555C73.4801 27.5502 74.238 27.3539 74.9134 26.984C75.5888 26.6141 76.1604 26.0823 76.576 25.4369L80.3716 28.2002Z" fill="#0A66C2"/>
<path d="M92.4977 18.0591C89.7882 18.0591 88.1625 19.8559 88.1625 22.474C88.1625 25.0921 89.7876 26.8906 92.4977 26.8906C95.2077 26.8906 96.8368 25.0966 96.8368 22.474C96.8368 19.8515 95.2106 18.0591 92.4977 18.0591ZM101.826 31.1984H96.8368V28.8999H96.7629C96.137 29.7359 95.3252 30.4172 94.3908 30.8906C93.4563 31.3639 92.4244 31.6166 91.3755 31.629C86.1688 31.629 82.739 27.8969 82.739 22.6192C82.739 17.7721 85.7742 13.3213 90.7636 13.3213C93.0063 13.3213 95.1011 13.9307 96.3299 15.6199H96.401V5.62906H101.825L101.826 31.1984Z" fill="#0A66C2"/>
<path d="M138.409 31.2085H132.99V22.7801C132.99 20.7703 132.954 18.1831 130.171 18.1831C127.349 18.1831 126.917 20.3728 126.917 22.6338V31.208H121.498V13.8758H126.7V16.2444H126.773C127.294 15.3603 128.046 14.6331 128.95 14.14C129.854 13.647 130.876 13.4067 131.906 13.4447C137.398 13.4447 138.411 17.0327 138.411 21.7004L138.409 31.2085ZM115.384 11.5066C114.762 11.5067 114.154 11.3237 113.637 10.9806C113.119 10.6375 112.716 10.1498 112.478 9.57912C112.24 9.00847 112.178 8.3805 112.299 7.77464C112.42 7.16877 112.72 6.61221 113.159 6.17534C113.599 5.73848 114.159 5.44092 114.769 5.3203C115.379 5.19968 116.012 5.26142 116.586 5.4977C117.161 5.73399 117.652 6.13421 117.998 6.64776C118.343 7.16131 118.528 7.76512 118.528 8.38284C118.528 8.79298 118.447 9.19913 118.289 9.57808C118.131 9.95704 117.899 10.3014 117.607 10.5914C117.315 10.8815 116.969 11.1116 116.587 11.2687C116.206 11.4257 115.797 11.5065 115.384 11.5066ZM118.093 31.2085H112.669V13.8758H118.093V31.2085ZM141.11 0.26224H109.946C109.238 0.254312 108.557 0.525617 108.051 1.01654C107.545 1.50746 107.256 2.17783 107.247 2.88034V33.9606C107.255 34.6635 107.544 35.3343 108.05 35.8257C108.556 36.3172 109.238 36.589 109.946 36.5815H141.11C141.82 36.5903 142.503 36.3193 143.011 35.8279C143.519 35.3365 143.81 34.6649 143.82 33.9606V2.8781C143.81 2.17419 143.519 1.50306 143.011 1.01215C142.503 0.521243 141.819 0.250713 141.11 0.259997" fill="#0A66C2"/>
<path d="M147.982 31.8852C147.323 31.8915 146.693 32.1568 146.23 32.6232C145.767 33.0896 145.509 33.719 145.512 34.3738C145.515 35.0286 145.779 35.6556 146.247 36.1175C146.714 36.5794 147.347 36.8387 148.006 36.8387C148.665 36.8387 149.298 36.5794 149.765 36.1175C150.232 35.6556 150.497 35.0286 150.5 34.3738C150.503 33.719 150.245 33.0896 149.782 32.6232C149.319 32.1568 148.689 31.8915 148.03 31.8852H147.982ZM147.982 36.5552C147.549 36.5623 147.125 36.4419 146.761 36.2093C146.397 35.9766 146.112 35.6421 145.939 35.248C145.767 34.854 145.717 34.4181 145.794 33.9954C145.871 33.5728 146.073 33.1824 146.374 32.8737C146.674 32.5649 147.061 32.3517 147.483 32.2609C147.906 32.17 148.346 32.2058 148.749 32.3635C149.151 32.5213 149.497 32.794 149.743 33.1471C149.99 33.5002 150.125 33.918 150.132 34.3474C150.132 34.3598 150.132 34.3715 150.132 34.3839C150.144 34.9473 149.93 35.4924 149.538 35.8994C149.145 36.3064 148.606 36.5418 148.039 36.554H147.982" fill="#0A66C2"/>
</g>
<defs>
<clipPath id="clip0_1_4">
<rect width="151" height="36.6231" fill="white" transform="translate(-0.5 0.259995)"/>
</clipPath>
</defs>
</svg>
